<svg width="1300" height="1409" viewBox="0 0 1300 1409" fill="none" xmlns="http://www.w3.org/2000/svg">
<rect x="25" y="109" width="1250" height="1200" fill="#FFFBE3"/>
<path d="M1225 400L1268.3 100H1181.7L1225 400Z" fill="#AC7B4E"/>
<path d="M1025 400L1068.3 100H981.699L1025 400Z" fill="#AC7B4E"/>
<path d="M825 400L868.301 100H781.699L825 400Z" fill="#AC7B4E"/>
<path d="M1125 400L1168.3 100H1081.7L1125 400Z" fill="#573E27"/>
<path d="M925 400L968.301 100H881.699L925 400Z" fill="#573E27"/>
<path d="M725 400L768.301 100H681.699L725 400Z" fill="#573E27"/>
<path d="M575 400L618.301 100H531.699L575 400Z" fill="#AC7B4E"/>
<path d="M375 400L418.301 100H331.699L375 400Z" fill="#AC7B4E"/>
<path d="M175 400L218.301 100H131.699L175 400Z" fill="#AC7B4E"/>
<path d="M475 400L518.301 100H431.699L475 400Z" fill="#573E27"/>
<path d="M275 400L318.301 100H231.699L275 400Z" fill="#573E27"/>
<path d="M75 400L118.301 100H31.6987L75 400Z" fill="#573E27"/>
<path d="M75 1009L118.301 1309H31.6987L75 1009Z" fill="#AC7B4E"/>
<path d="M275 1009L318.301 1309H231.699L275 1009Z" fill="#AC7B4E"/>
<path d="M475 1009L518.301 1309H431.699L475 1009Z" fill="#AC7B4E"/>
<path d="M175 1009L218.301 1309H131.699L175 1009Z" fill="#573E27"/>
<path d="M375 1009L418.301 1309H331.699L375 1009Z" fill="#573E27"/>
<path d="M575 1009L618.301 1309H531.699L575 1009Z" fill="#573E27"/>
<path d="M725 1009L768.301 1309H681.699L725 1009Z" fill="#AC7B4E"/>
<path d="M925 1009L968.301 1309H881.699L925 1009Z" fill="#AC7B4E"/>
<path d="M1125 1009L1168.3 1309H1081.7L1125 1009Z" fill="#AC7B4E"/>
<path d="M825 1009L868.301 1309H781.699L825 1009Z" fill="#573E27"/>
<path d="M1025 1009L1068.3 1309H981.699L1025 1009Z" fill="#573E27"/>
<path d="M1225 1009L1268.3 1309H1181.7L1225 1009Z" fill="#573E27"/>
<rect x="625" y="109" width="50" height="1200" fill="#897F5B"/>
<rect y="109" width="25" height="1200" fill="#897F5B"/>
<rect x="1275" y="109" width="25" height="1200" fill="#897F5B"/>
<rect x="1300" y="1309" width="25" height="1300" transform="rotate(90 1300 1309)" fill="#897F5B"/>
<rect x="1300" y="84" width="25" height="1300" transform="rotate(90 1300 84)" fill="#897F5B"/>
</svg>
