<?xml version="1.0" standalone="no"?>
<!DOCTYPE svg PUBLIC "-//W3C//DTD SVG 20010904//EN"
 "http://www.w3.org/TR/2001/REC-SVG-20010904/DTD/svg10.dtd">
<svg version="1.0" xmlns="http://www.w3.org/2000/svg"
 width="938.000000pt" height="938.000000pt" viewBox="0 0 938.000000 938.000000"
 preserveAspectRatio="xMidYMid meet">
<metadata>
Created by potrace 1.11, written by Peter Selinger 2001-2013
</metadata>
<g transform="translate(0.000000,938.000000) scale(0.100000,-0.100000)"
fill="#000000" stroke="none">
<path d="M4631 9306 c-9 -11 -9 -16 0 -22 7 -4 9 -3 5 4 -3 6 -2 13 3 16 13 9
7 -19 -8 -38 -7 -9 -21 -16 -30 -17 -9 0 -11 -3 -4 -5 7 -3 9 -12 6 -20 -3 -7
-9 -11 -14 -8 -5 3 -6 -2 -3 -10 3 -9 11 -16 17 -16 6 0 7 -3 4 -6 -4 -4 -14
-1 -24 7 -9 8 -14 9 -10 2 4 -6 0 -19 -9 -27 -8 -9 -11 -16 -6 -16 7 0 9 -33
2 -50 -1 -3 -2 -8 -1 -12 0 -4 -6 -5 -14 -2 -8 4 -12 11 -8 17 3 6 1 7 -6 3
-9 -6 -9 -11 0 -22 9 -11 9 -14 0 -14 -7 0 -9 -4 -6 -10 3 -5 0 -10 -7 -10
-11 0 -11 -2 0 -9 10 -6 5 -15 -18 -38 -21 -20 -28 -33 -20 -38 8 -5 6 -11 -6
-19 -13 -10 -14 -15 -4 -21 9 -6 11 -4 5 5 -5 9 -4 11 3 6 13 -8 -5 -46 -22
-46 -4 0 -3 7 4 15 9 10 9 15 1 15 -6 0 -12 -4 -12 -10 -1 -5 -3 -14 -4 -20
-1 -5 -3 -15 -4 -21 0 -5 -5 -8 -10 -4 -5 3 -12 1 -15 -4 -4 -5 -1 -13 5 -17
8 -4 9 -3 5 4 -5 8 -1 10 10 5 11 -4 13 -8 6 -11 -7 -2 -10 -8 -6 -13 3 -5 2
-9 -3 -8 -25 4 -35 -3 -30 -21 3 -11 0 -20 -6 -20 -7 0 -5 -5 3 -10 8 -5 10
-10 4 -10 -5 0 -19 -7 -30 -16 -19 -15 -18 -15 2 -5 16 8 21 7 21 -4 0 -8 -4
-12 -9 -9 -5 4 -12 -4 -15 -16 -3 -11 -11 -19 -18 -16 -8 3 -11 -4 -9 -20 3
-27 -21 -57 -39 -48 -7 3 -5 -1 4 -8 15 -12 15 -15 0 -28 -8 -8 -20 -14 -26
-12 -5 1 -1 -5 9 -13 19 -14 19 -15 1 -15 -10 0 -15 -3 -12 -7 4 -3 1 -13 -6
-21 -10 -13 -9 -14 3 -7 13 8 13 7 1 -9 -13 -15 -13 -19 0 -28 10 -7 5 -8 -19
-4 -30 5 -32 4 -18 -10 22 -21 20 -27 -3 -14 -17 9 -19 7 -15 -15 3 -15 0 -25
-7 -25 -8 0 -8 -5 1 -15 11 -13 10 -14 -6 -8 -17 6 -17 5 -5 -10 17 -21 8 -22
-13 -2 -13 14 -15 12 -12 -20 3 -27 1 -35 -10 -31 -15 6 -7 -24 10 -37 7 -5 6
-7 -4 -6 -33 3 -41 -2 -40 -23 4 -40 1 -49 -12 -42 -7 4 -4 -3 7 -16 11 -13
15 -20 9 -17 -7 4 -15 0 -18 -9 -3 -8 -10 -13 -15 -10 -5 3 -12 -1 -15 -10 -9
-22 -8 -26 6 -18 7 5 8 3 3 -5 -4 -7 -16 -10 -27 -8 -16 4 -17 3 -7 -9 6 -7
16 -11 22 -7 6 3 7 1 3 -5 -4 -6 -14 -8 -23 -5 -10 4 -14 2 -10 -4 4 -6 0 -16
-8 -23 -8 -7 -13 -16 -10 -20 3 -4 -1 -10 -9 -13 -9 -4 -13 -18 -11 -41 2 -25
0 -34 -7 -29 -7 4 -9 0 -5 -10 4 -10 1 -17 -5 -17 -6 0 -9 -3 -5 -6 3 -4 -1
-13 -9 -22 -10 -9 -13 -24 -10 -38 4 -14 2 -24 -4 -24 -6 0 -8 6 -4 13 4 7 3
9 -2 4 -5 -5 -9 -12 -9 -15 0 -4 -4 -13 -9 -21 -7 -10 -6 -12 4 -6 9 5 11 4 6
-3 -4 -7 -15 -12 -24 -12 -10 0 -13 -3 -7 -8 18 -13 17 -35 -1 -28 -14 5 -15
4 -4 -9 10 -12 9 -16 -4 -21 -9 -3 -16 -13 -16 -21 0 -8 -4 -12 -9 -8 -5 3
-12 1 -15 -4 -4 -5 -1 -13 5 -17 8 -5 9 -3 4 6 -6 9 -4 11 5 5 10 -6 10 -11
-3 -20 -20 -14 -23 -30 -4 -19 6 4 1 -5 -12 -19 -14 -15 -21 -27 -17 -27 4 0
1 -6 -6 -14 -7 -8 -17 -11 -22 -8 -5 3 -6 0 -2 -6 4 -6 12 -10 19 -8 7 1 9 1
4 -1 -4 -3 -4 -9 -1 -15 4 -5 -4 -4 -17 2 l-24 13 19 -22 c17 -18 17 -21 3
-15 -11 4 -19 0 -23 -12 -4 -11 -14 -27 -22 -36 -21 -25 -7 -23 15 2 18 18 19
19 19 0 0 -10 -3 -17 -7 -15 -8 6 -49 -33 -49 -46 0 -6 4 -7 10 -4 6 3 7 -1 4
-10 -5 -13 -9 -13 -23 -3 -9 7 -13 9 -9 4 9 -10 -14 -36 -26 -28 -5 3 -6 1 -3
-4 3 -6 2 -16 -3 -24 -5 -8 -4 -22 1 -32 7 -14 6 -20 -6 -24 -8 -3 -12 -10 -9
-15 3 -5 1 -9 -5 -9 -5 0 -12 6 -15 13 -4 6 -4 2 -2 -10 2 -13 -1 -23 -6 -23
-6 0 -4 -8 3 -17 12 -15 12 -16 -3 -10 -10 3 -17 3 -16 -1 1 -4 -3 -17 -10
-29 -7 -13 -10 -23 -6 -23 4 0 0 -8 -9 -18 -11 -12 -13 -22 -7 -28 7 -7 4 -18
-8 -35 -11 -13 -21 -28 -23 -34 -2 -5 -8 -9 -14 -7 -5 1 -1 -5 9 -13 11 -8 14
-15 8 -15 -7 0 -12 -7 -12 -15 0 -9 -6 -12 -15 -9 -11 5 -13 2 -8 -12 4 -10 2
-15 -3 -11 -6 3 -11 -9 -12 -26 -2 -17 -12 -42 -24 -54 -16 -17 -18 -23 -7
-24 8 0 4 -5 -8 -11 -13 -6 -23 -15 -23 -21 0 -5 6 -4 14 2 10 8 16 9 21 1 6
-9 -1 -14 -17 -11 -5 0 -8 -4 -8 -10 0 -8 -4 -8 -14 0 -11 9 -16 9 -22 0 -4
-8 -3 -9 4 -5 17 10 15 -3 -3 -21 -8 -8 -12 -19 -9 -25 4 -7 2 -8 -5 -4 -6 4
-9 12 -6 17 4 5 1 9 -4 9 -6 0 -11 -6 -11 -12 0 -9 -16 -13 -45 -13 -25 0 -45
5 -45 10 0 7 -3 7 -8 0 -9 -13 -105 -13 -114 0 -5 6 -8 5 -8 -4 0 -10 -3 -11
-13 -3 -8 7 -18 7 -27 2 -8 -5 -22 -4 -33 2 -12 6 -17 6 -13 0 13 -21 -64 -5
-84 18 -11 12 -20 19 -20 14 0 -6 6 -16 13 -23 6 -7 -2 -4 -20 5 -17 10 -29
22 -27 26 3 5 0 8 -5 8 -6 0 -11 -4 -11 -8 0 -10 -51 -9 -67 1 -6 4 -14 3 -18
-3 -3 -5 -11 -10 -16 -10 -6 0 -7 5 -4 10 3 6 1 10 -4 10 -6 0 -11 -4 -11 -8
0 -10 -51 -9 -67 1 -6 4 -14 3 -18 -3 -3 -5 -11 -10 -16 -10 -6 0 -7 5 -4 10
3 6 1 10 -4 10 -6 0 -11 -4 -11 -8 0 -10 -51 -9 -67 1 -6 4 -14 3 -17 -2 -8
-13 -51 -8 -70 8 -8 7 -20 10 -25 7 -5 -4 -13 -2 -16 4 -5 8 -11 8 -20 0 -9
-8 -14 -7 -18 3 -3 9 -23 13 -61 13 -31 -1 -56 3 -56 9 0 6 -3 6 -8 0 -9 -14
-65 -13 -74 0 -5 7 -8 7 -8 0 0 -6 -13 -10 -30 -10 -16 -1 -30 3 -30 7 0 4 -5
8 -11 8 -5 0 -7 -6 -3 -12 5 -9 3 -9 -9 1 -9 7 -14 18 -10 24 4 6 1 7 -7 2
-21 -13 -80 -14 -73 -1 4 7 1 6 -8 -1 -9 -7 -20 -9 -29 -3 -8 5 -19 5 -25 0
-13 -11 -44 -7 -53 7 -4 5 -17 9 -30 8 -13 -1 -25 2 -28 7 -3 4 -14 4 -24 -2
-25 -13 -33 -13 -24 3 6 10 4 10 -7 0 -16 -15 -33 -17 -24 -3 3 6 1 10 -4 10
-6 0 -11 -4 -11 -8 0 -9 -61 -9 -77 1 -6 4 -14 3 -18 -3 -9 -15 -28 -12 -19 3
6 10 4 10 -7 0 -16 -16 -33 -17 -23 -2 4 8 -1 9 -16 4 -17 -6 -21 -4 -14 6 6
12 5 12 -9 0 -11 -9 -17 -10 -17 -2 0 7 -13 10 -34 8 -25 -3 -33 -1 -29 9 3 9
-3 12 -22 8 -17 -3 -24 -1 -20 6 3 5 1 10 -4 10 -6 0 -11 -5 -11 -11 0 -8 -4
-8 -13 0 -10 7 -17 7 -24 0 -8 -8 -17 -7 -33 1 -12 7 -20 8 -17 3 3 -5 -9 -9
-27 -9 -20 1 -32 5 -29 12 3 7 -17 10 -59 9 -35 -1 -69 4 -77 9 -11 8 -13 8
-8 -1 5 -8 -1 -11 -20 -8 -16 2 -32 4 -36 4 -5 1 -6 5 -3 10 3 5 -20 8 -52 7
-31 -1 -62 2 -69 6 -6 5 -14 5 -18 -2 -3 -5 -11 -10 -16 -10 -6 0 -7 5 -4 10
3 6 1 10 -4 10 -6 0 -11 -4 -11 -8 0 -12 -63 -9 -72 3 -5 7 -8 6 -8 -1 0 -11
-49 -12 -67 -1 -6 4 -14 3 -18 -3 -3 -5 -11 -10 -16 -10 -6 0 -7 5 -4 10 3 6
1 10 -4 10 -6 0 -11 -4 -11 -8 0 -10 -51 -9 -67 1 -6 4 -14 3 -18 -3 -3 -5
-11 -10 -16 -10 -6 0 -7 6 -3 13 6 9 5 9 -8 0 -8 -7 -18 -10 -21 -6 -13 12 -7
-13 5 -26 7 -8 1 -6 -13 3 -22 14 -26 14 -26 1 0 -8 7 -15 15 -15 9 0 13 -7 9
-19 -4 -16 0 -18 20 -15 23 4 24 4 9 -11 -18 -18 -12 -39 9 -32 8 4 11 -3 9
-19 -1 -13 2 -22 7 -18 5 3 6 10 3 16 -4 7 -2 8 5 4 7 -5 9 -17 5 -29 -5 -18
-4 -20 7 -9 16 15 29 16 29 1 0 -5 -4 -7 -10 -4 -5 3 -10 1 -10 -4 0 -6 5 -11
11 -11 5 0 8 -4 5 -9 -7 -11 28 -43 37 -34 4 3 7 -1 7 -9 0 -17 26 -32 50 -29
13 2 13 1 0 -8 -9 -7 -19 -6 -27 1 -19 16 -16 4 6 -21 11 -13 24 -20 29 -17 5
3 7 -7 5 -22 -4 -21 -2 -24 6 -12 9 12 11 11 11 -7 0 -13 8 -24 20 -28 11 -3
25 -16 31 -27 8 -15 8 -19 0 -14 -6 4 -11 3 -11 -3 0 -5 12 -14 28 -20 18 -8
20 -10 5 -7 -15 3 -20 0 -16 -10 3 -8 9 -11 14 -8 5 3 9 -4 9 -15 0 -11 8 -22
18 -26 9 -3 26 -17 36 -32 11 -14 15 -23 9 -20 -6 4 -13 1 -16 -6 -4 -10 2
-13 19 -9 13 2 24 0 24 -7 0 -5 -7 -8 -16 -4 -14 5 -13 3 2 -15 18 -22 30 -30
20 -14 -2 4 0 14 6 22 8 12 9 12 4 -2 -3 -10 1 -23 8 -30 7 -7 11 -18 9 -25
-2 -6 1 -15 8 -19 8 -5 9 -3 4 6 -5 8 -4 11 3 7 5 -4 8 -16 5 -27 -3 -11 0
-20 6 -20 6 0 11 -6 11 -14 0 -15 27 -30 50 -27 13 2 13 1 0 -8 -9 -7 -19 -6
-27 1 -19 16 -16 4 6 -21 11 -13 24 -20 30 -17 5 4 13 1 17 -5 4 -8 3 -9 -4
-5 -8 5 -12 -1 -12 -16 0 -18 2 -20 10 -8 9 13 10 13 11 0 1 -8 1 -19 0 -23
-1 -5 3 -6 9 -2 5 3 10 -1 10 -11 0 -12 3 -14 13 -6 9 8 17 8 27 0 12 -8 12
-9 -2 -4 -12 3 -18 0 -18 -10 0 -9 5 -12 12 -8 8 5 9 2 4 -11 -5 -15 -4 -16 9
-5 13 11 14 10 9 -5 -6 -14 -4 -16 6 -10 10 6 12 4 7 -9 -6 -14 -3 -16 16 -12
12 3 16 3 10 0 -17 -8 -16 -22 3 -41 8 -9 13 -22 10 -29 -3 -8 0 -11 9 -7 8 3
12 10 8 16 -3 6 -1 7 6 3 9 -6 9 -11 0 -22 -9 -11 -9 -14 0 -14 7 0 10 -4 7
-8 -2 -4 0 -14 6 -22 8 -12 9 -12 4 2 -3 10 -1 20 3 23 5 3 8 -8 7 -24 -1 -17
1 -28 5 -25 4 2 10 -5 14 -16 3 -11 17 -23 31 -26 13 -3 24 -10 24 -15 0 -6
-10 -4 -22 2 l-23 11 22 -21 c27 -26 31 -26 35 -3 3 14 5 13 10 -6 3 -12 2
-20 -2 -17 -5 3 -8 -4 -7 -15 1 -11 5 -20 10 -20 4 0 6 -4 3 -8 -2 -4 0 -14 6
-22 8 -13 9 -12 5 2 -6 17 16 19 30 3 4 -4 2 -5 -4 -1 -7 4 -13 2 -13 -3 0 -6
3 -11 8 -11 4 0 18 -10 32 -21 14 -11 19 -18 13 -14 -8 4 -13 0 -13 -9 0 -15
12 -21 33 -17 5 1 6 -3 3 -8 -4 -5 1 -17 10 -25 8 -9 11 -16 6 -16 -5 0 -17
10 -26 23 -16 22 -16 22 -6 0 5 -12 15 -25 20 -28 6 -4 7 -11 4 -17 -4 -7 -2
-8 4 -4 7 4 12 1 12 -9 0 -10 5 -13 13 -9 9 6 9 5 0 -7 -10 -12 -9 -18 7 -29
10 -7 16 -18 13 -23 -3 -5 4 -4 15 2 15 8 23 8 28 -1 4 -6 3 -8 -3 -5 -6 4
-13 0 -17 -8 -3 -8 -2 -14 2 -14 27 4 34 -1 22 -17 -11 -12 -11 -15 1 -12 8 2
17 7 21 13 4 5 6 0 5 -12 0 -12 -5 -19 -9 -17 -4 3 -8 0 -8 -6 0 -8 9 -10 26
-6 24 6 25 6 10 -9 -19 -20 -11 -42 9 -25 12 10 13 7 10 -12 -4 -21 -3 -22 9
-5 12 16 14 16 20 2 3 -9 2 -13 -4 -10 -6 3 -10 0 -10 -9 0 -8 12 -19 28 -24
24 -9 25 -10 5 -11 -13 -1 -23 -5 -23 -10 0 -5 8 -8 17 -7 10 0 17 -4 16 -11
-1 -6 5 -17 14 -25 12 -9 15 -9 9 0 -13 21 1 13 34 -19 17 -17 24 -29 15 -26
-9 4 -15 1 -15 -9 0 -12 6 -15 21 -11 16 4 18 3 8 -9 -9 -11 -9 -14 1 -14 7 0
10 -7 6 -15 -4 -10 3 -20 19 -27 13 -6 22 -14 20 -19 -3 -4 -1 -10 5 -14 6 -4
7 -11 4 -17 -5 -7 -1 -9 9 -5 11 4 14 2 10 -9 -3 -8 1 -14 10 -14 9 0 19 -5
23 -12 5 -7 3 -8 -6 -3 -8 5 -11 3 -8 -6 3 -8 11 -14 19 -14 8 0 14 -6 14 -13
0 -7 6 -17 14 -21 8 -5 12 -15 9 -23 -3 -8 0 -22 8 -32 7 -11 11 -23 8 -28 -3
-5 -2 -8 3 -7 14 4 43 -13 38 -21 -3 -5 -1 -11 5 -15 6 -4 7 -11 4 -17 -5 -7
-1 -9 9 -5 11 4 14 2 10 -9 -3 -8 1 -14 10 -14 9 0 19 -5 23 -12 5 -7 3 -8 -6
-3 -8 5 -11 3 -8 -6 3 -8 11 -13 18 -11 7 2 10 -3 7 -12 -4 -9 2 -21 13 -29
11 -8 17 -17 12 -22 -4 -5 -2 -5 4 -2 7 4 19 -4 28 -18 12 -18 13 -25 4 -25
-9 0 -8 -3 2 -10 14 -9 6 -15 -15 -10 -5 1 -1 -9 10 -21 l20 -22 -22 12 c-23
12 -43 -2 -22 -15 8 -5 9 -3 4 6 -6 9 -4 11 4 6 9 -6 8 -13 -5 -27 -17 -19
-29 -26 -20 -11 2 4 1 14 -5 22 -6 11 -8 5 -5 -18 3 -24 0 -32 -10 -28 -7 3
-18 -3 -26 -12 -11 -13 -11 -14 1 -8 9 6 12 5 9 -5 -3 -8 -11 -13 -17 -11 -7
1 -10 -2 -6 -8 3 -5 1 -10 -5 -10 -6 0 -8 -5 -5 -10 4 -6 11 -8 16 -5 19 12 8
-2 -23 -31 -18 -16 -24 -19 -14 -6 11 12 16 22 11 22 -18 0 -33 -35 -23 -54 7
-12 7 -16 0 -12 -6 3 -12 1 -14 -6 -2 -6 -12 -12 -21 -14 -9 -1 -15 2 -11 7 3
5 9 7 14 4 4 -3 11 2 14 11 6 15 -4 13 -31 -8 -14 -11 -5 -41 10 -31 6 3 7 1
3 -6 -6 -9 -11 -9 -21 -1 -10 8 -15 8 -21 -1 -5 -8 -3 -9 6 -4 10 6 12 4 7 -9
-4 -10 -7 -20 -7 -22 0 -3 -6 -2 -13 2 -9 6 -9 5 0 -7 14 -18 -15 -58 -37 -51
-13 5 -13 3 -1 -11 13 -17 11 -19 -19 -21 -8 -1 -14 -7 -13 -14 2 -7 -1 -12
-6 -12 -6 0 -8 -9 -6 -19 3 -15 -1 -18 -12 -14 -11 4 -14 2 -9 -5 4 -7 2 -12
-6 -12 -10 0 -10 -2 1 -9 11 -7 9 -10 -8 -16 -19 -6 -20 -9 -9 -23 11 -13 11
-15 -3 -10 -9 4 -20 -2 -28 -14 -7 -11 -8 -17 -2 -14 5 4 13 1 17 -5 4 -7 3
-9 -4 -5 -6 3 -14 1 -18 -5 -5 -8 -9 -8 -14 1 -6 9 -10 6 -15 -9 -3 -11 -11
-21 -16 -21 -5 0 -9 -6 -9 -12 1 -7 9 -3 20 10 11 13 21 18 25 12 3 -5 1 -10
-5 -10 -6 0 -8 -5 -4 -12 4 -6 3 -8 -3 -5 -13 8 -35 -17 -25 -29 4 -4 -2 -2
-12 6 -18 14 -19 13 -14 -7 4 -13 0 -27 -8 -34 -8 -6 -11 -16 -7 -22 4 -6 1
-7 -6 -3 -9 6 -8 13 6 29 12 15 13 18 2 9 -9 -6 -18 -9 -22 -6 -3 3 -4 -6 -3
-20 2 -14 -1 -23 -5 -20 -5 3 -9 1 -9 -5 0 -6 -6 -8 -13 -5 -18 6 -41 -43 -24
-50 7 -2 2 -5 -10 -5 -13 -1 -23 -6 -23 -12 0 -5 4 -8 9 -5 11 7 8 -21 -4 -31
-4 -4 -5 -2 -1 5 4 7 1 12 -8 12 -9 0 -15 -3 -15 -8 4 -21 -2 -32 -13 -26 -8
5 -9 2 -5 -9 4 -12 1 -17 -11 -17 -15 0 -15 -2 -2 -10 8 -5 10 -10 4 -10 -7 0
-11 -8 -10 -18 0 -11 -5 -16 -16 -14 -12 2 -15 -3 -11 -18 3 -12 0 -20 -6 -20
-7 0 -9 5 -5 13 5 8 2 7 -9 -2 -13 -11 -15 -17 -6 -28 7 -7 9 -16 5 -20 -3 -3
-6 -1 -6 5 0 7 -4 12 -10 12 -5 0 -7 -7 -3 -16 4 -10 -1 -17 -16 -21 -11 -3
-21 -10 -21 -15 0 -5 4 -7 9 -4 11 7 8 -21 -4 -31 -4 -4 -5 -2 -1 5 4 7 1 12
-8 12 -9 0 -15 -3 -15 -7 3 -20 -2 -34 -11 -28 -5 3 -10 2 -10 -3 0 -17 13
-22 29 -9 14 11 14 10 2 -5 -7 -10 -18 -15 -23 -12 -10 7 -48 -24 -48 -39 0
-5 9 1 21 14 l20 24 -15 -25 c-8 -14 -15 -29 -15 -33 1 -5 -3 -12 -7 -15 -4
-4 -4 -1 0 6 4 6 2 12 -3 12 -6 0 -11 -5 -11 -11 0 -5 -6 -7 -12 -4 -7 4 -4
-1 7 -10 20 -17 20 -17 -2 -10 -22 6 -28 -2 -24 -28 0 -4 -4 -7 -10 -7 -8 0
-8 -4 0 -13 13 -17 -5 -38 -25 -30 -10 4 -12 0 -8 -11 4 -9 -1 -24 -9 -34 -9
-9 -16 -21 -15 -25 0 -5 -4 -12 -8 -15 -4 -4 -4 -1 0 6 5 8 0 12 -14 12 -15 0
-22 -8 -26 -30 -4 -16 -10 -30 -15 -30 -5 0 -6 8 -3 18 4 9 -3 3 -14 -14 -11
-18 -25 -35 -32 -39 -8 -5 -8 -10 0 -20 8 -9 8 -15 0 -20 -6 -3 -8 -10 -5 -15
3 -5 -5 -14 -17 -20 -22 -11 -22 -10 -4 4 11 9 16 16 12 16 -5 0 -3 7 4 15 7
8 10 15 6 15 -11 0 -58 -79 -52 -88 3 -5 -1 -18 -10 -28 -14 -18 -14 -17 -4 6
10 22 10 23 -3 8 -8 -10 -17 -15 -21 -11 -4 4 -4 0 0 -10 4 -11 0 -19 -10 -23
-14 -5 -14 -9 -4 -22 11 -13 10 -15 -2 -11 -8 3 -24 -3 -34 -14 -16 -17 -16
-19 -3 -14 9 3 19 1 23 -5 4 -6 3 -8 -3 -5 -13 8 -40 -26 -35 -43 4 -13 3 -13
-11 -2 -13 11 -15 10 -10 -10 4 -19 3 -20 -7 -8 -10 12 -11 11 -7 -8 3 -12 1
-20 -4 -16 -5 3 -9 0 -9 -6 0 -6 -6 -8 -13 -4 -6 4 -9 4 -5 -1 4 -4 0 -14 -10
-22 -15 -13 -15 -13 5 -4 16 8 24 8 29 -1 4 -7 3 -8 -4 -4 -7 4 -12 3 -12 -2
0 -5 -9 -12 -20 -15 -11 -3 -20 -13 -20 -22 0 -10 5 -13 12 -9 7 4 8 3 4 -4
-4 -6 -13 -9 -21 -5 -17 6 -20 -8 -4 -24 7 -7 3 -9 -15 -6 -16 3 -26 1 -26 -6
0 -7 4 -10 9 -6 5 3 13 1 16 -5 4 -6 3 -10 -2 -9 -17 3 -32 -2 -45 -14 -7 -7
-22 -18 -33 -25 -12 -7 -14 -12 -6 -12 11 0 11 -3 0 -17 -9 -11 -10 -14 -2 -9
9 5 11 2 7 -8 -3 -9 -10 -13 -15 -10 -5 3 -9 1 -9 -3 0 -5 -12 -21 -26 -36
-16 -18 -24 -35 -21 -48 3 -10 2 -17 -2 -14 -5 2 -17 -3 -27 -11 -10 -9 -12
-12 -4 -9 8 4 2 -5 -15 -19 -22 -20 -24 -24 -8 -17 31 16 35 14 16 -7 -10 -10
-24 -16 -32 -14 -10 4 -13 0 -9 -16 4 -12 1 -25 -4 -29 -7 -4 -8 -1 -3 7 5 9
4 11 -3 6 -9 -5 -9 -13 -2 -27 6 -10 13 -19 16 -19 3 0 2 5 -2 12 -5 8 -3 8 7
2 8 -5 28 -9 45 -10 17 -1 37 -5 44 -9 8 -5 11 -4 7 2 -7 11 95 9 114 -3 7 -4
10 -3 6 3 -4 6 16 9 54 7 35 -2 57 1 54 7 -7 10 4 12 98 11 50 0 67 3 64 11
-5 14 50 16 71 3 7 -4 12 -4 12 1 0 4 52 8 115 8 70 0 115 -4 115 -10 0 -7 3
-7 8 0 4 6 14 10 22 10 8 0 14 7 12 15 -3 10 3 9 19 -5 20 -18 22 -18 16 -2
-7 20 -7 20 28 7 19 -7 24 -7 19 2 -5 8 -2 9 11 4 11 -4 22 -2 27 6 6 11 8 10
8 0 0 -7 5 -10 10 -7 6 4 8 9 6 13 -2 4 61 7 141 7 80 0 147 4 150 9 3 4 9 2
14 -5 7 -11 9 -9 9 5 0 20 0 20 15 0 12 -15 14 -16 9 -2 -4 13 -1 16 15 13 12
-2 26 -7 33 -11 7 -4 8 -3 4 4 -4 7 -1 12 6 13 13 1 28 3 58 10 9 3 14 -2 12
-11 -3 -13 -1 -13 15 0 19 16 41 19 60 7 6 -4 14 -3 17 2 3 5 23 7 43 4 21 -2
43 -4 48 -4 80 3 107 8 115 21 9 14 14 7 11 -15 -1 -5 4 -3 11 5 14 17 27 19
45 7 6 -4 14 -4 17 1 2 4 34 7 71 6 38 0 69 4 73 10 9 14 44 17 35 3 -4 -6 -1
-7 6 -3 21 13 92 16 85 4 -5 -7 -2 -8 7 -2 8 4 28 9 44 10 17 0 37 3 45 7 31
12 90 15 90 3 0 -7 4 -6 9 2 4 8 12 14 17 15 5 1 8 6 6 11 -2 5 4 4 12 -4 9
-7 16 -8 16 -3 0 5 9 9 20 10 13 1 18 -2 14 -9 -5 -7 -2 -8 7 -3 19 12 299 13
323 2 13 -6 16 -6 12 2 -5 8 4 9 31 5 49 -8 56 -13 43 -29 -8 -10 -6 -15 10
-20 13 -4 19 -12 16 -20 -3 -9 0 -12 9 -9 15 6 15 -12 1 -35 -7 -10 -6 -12 4
-6 10 6 12 4 7 -8 -3 -9 -1 -18 6 -20 9 -3 8 -9 -3 -23 -14 -18 -14 -18 6 -1
11 9 25 17 30 17 5 0 2 -5 -6 -10 -13 -9 -13 -11 0 -20 13 -9 13 -10 0 -10
-12 0 -13 -2 -1 -9 8 -5 10 -14 6 -21 -5 -8 -4 -11 2 -7 5 3 16 -2 24 -12 19
-23 23 -44 7 -35 -10 5 -10 4 -1 -6 6 -7 9 -19 6 -26 -3 -9 2 -14 13 -14 16 0
17 -2 4 -10 -12 -8 -12 -10 5 -10 17 0 17 -2 5 -10 -12 -8 -12 -10 5 -11 12 0
15 -3 7 -6 -10 -4 -9 -9 5 -20 11 -9 12 -12 3 -8 -8 4 -4 -3 10 -15 14 -12 18
-19 10 -15 -9 4 -8 1 3 -8 14 -11 15 -16 5 -20 -11 -4 -11 -6 0 -6 7 -1 10 -6
7 -11 -3 -6 2 -10 12 -10 15 0 16 -2 3 -10 -12 -8 -12 -10 5 -10 17 0 17 -2 5
-10 -12 -8 -12 -10 5 -10 17 0 17 -2 5 -10 -12 -8 -12 -10 -1 -10 8 0 11 -3 8
-6 -3 -4 -2 -15 4 -26 8 -14 7 -24 -3 -36 -9 -12 -6 -11 10 2 22 19 22 19 16
1 -5 -13 -4 -16 5 -10 10 6 11 3 2 -13 -9 -16 -7 -19 7 -18 9 0 16 -4 15 -11
-1 -6 4 -17 12 -23 8 -7 15 -19 15 -26 0 -8 6 -14 13 -14 8 0 7 -4 -3 -10 -10
-6 -11 -10 -2 -10 6 0 11 -3 11 -7 -3 -20 2 -34 11 -28 5 3 10 -1 10 -9 0 -9
6 -16 13 -16 8 0 7 -4 -3 -10 -8 -5 -10 -10 -3 -10 6 0 10 -8 9 -17 -2 -10 2
-21 7 -25 7 -4 6 -12 -3 -23 -7 -9 -9 -15 -4 -14 5 1 18 1 29 0 17 -1 18 -3 5
-11 -10 -6 -11 -10 -2 -10 6 0 12 -7 12 -16 0 -8 4 -13 9 -10 4 3 13 -6 20
-20 6 -15 7 -23 1 -19 -17 10 -11 -7 8 -22 9 -8 11 -12 5 -8 -9 4 -11 1 -7 -9
5 -14 16 -20 35 -18 3 1 6 -6 6 -14 0 -16 -8 -18 -23 -6 -5 4 -1 0 8 -10 20
-18 24 -33 7 -22 -8 5 -8 1 0 -13 6 -11 7 -23 3 -27 -3 -4 1 -4 11 0 10 3 17
1 17 -6 0 -6 4 -9 8 -6 5 3 9 -1 9 -9 0 -8 -4 -12 -9 -9 -4 3 -8 0 -8 -5 0 -6
5 -11 10 -11 6 0 9 -3 8 -7 -2 -5 1 -8 5 -8 13 0 29 -34 22 -45 -3 -6 -2 -10
2 -10 5 0 10 -9 11 -20 4 -43 6 -49 13 -44 4 2 10 0 13 -5 4 -5 -2 -12 -11
-14 -15 -4 -14 -5 3 -6 11 0 21 -8 22 -16 1 -8 3 -22 4 -30 1 -8 11 -15 22
-16 12 0 15 -3 9 -6 -7 -2 -13 -12 -13 -21 0 -15 2 -15 11 -2 9 12 10 12 5 -4
-4 -10 -1 -26 6 -34 7 -9 8 -13 2 -9 -6 3 -11 0 -11 -7 0 -9 7 -12 15 -8 11 4
14 1 9 -11 -4 -12 -1 -17 11 -17 15 0 15 -2 2 -10 -10 -6 -11 -10 -2 -10 6 0
12 -5 12 -10 0 -6 9 -20 20 -32 11 -12 20 -27 20 -32 0 -6 -5 -4 -10 4 -13 21
-12 6 2 -25 6 -14 17 -25 24 -25 8 0 11 -6 7 -17 -4 -10 -2 -14 4 -10 7 4 10
-8 8 -33 -2 -31 1 -38 10 -30 9 8 14 6 19 -5 3 -9 2 -14 -3 -11 -5 4 -7 -3 -4
-15 5 -16 8 -18 15 -7 7 9 8 8 4 -6 -7 -19 41 -126 57 -126 4 0 5 -4 2 -10 -3
-5 1 -10 10 -10 9 0 13 -5 10 -10 -4 -6 -1 -17 5 -25 7 -8 10 -22 6 -30 -3 -9
2 -20 14 -27 14 -9 16 -15 8 -26 -9 -10 -8 -12 2 -10 8 2 15 -3 16 -9 1 -7 3
-15 4 -18 1 -3 3 -8 5 -12 1 -5 6 -19 12 -33 6 -14 14 -43 18 -65 5 -22 10
-32 12 -23 3 10 10 15 19 11 10 -4 12 -9 4 -18 -7 -9 -6 -16 5 -25 8 -7 12
-16 9 -21 -3 -5 0 -8 6 -7 7 2 17 -5 23 -15 10 -14 9 -20 -3 -27 -13 -8 -12
-10 3 -10 14 0 22 -16 19 -42 -1 -3 6 -12 16 -20 15 -11 16 -11 5 3 -10 13
-10 16 1 16 14 0 14 -26 1 -47 -3 -6 -2 -10 4 -10 5 0 8 -8 7 -17 -4 -25 49
-72 74 -66 22 6 21 5 24 45 0 15 8 33 16 40 12 11 12 11 1 -4 -9 -12 -10 -18
-2 -18 13 0 26 44 17 59 -4 5 -1 13 5 16 5 4 8 13 5 21 -3 7 0 16 6 20 6 4 8
3 5 -3 -4 -6 -1 -13 7 -16 10 -4 13 3 10 28 -2 23 2 35 13 39 13 5 14 4 3 -9
-7 -8 -8 -15 -4 -15 5 0 15 9 22 21 8 12 9 18 3 14 -6 -3 -11 -1 -11 4 0 6 5
11 11 11 5 0 7 4 4 10 -3 5 0 10 7 10 8 0 9 3 3 8 -12 9 -19 36 -7 28 5 -3 16
4 25 15 9 10 13 19 7 19 -5 0 -12 -5 -15 -10 -3 -6 -12 -10 -18 -10 -7 0 -4 5
6 11 9 6 15 14 12 20 -4 5 2 6 11 2 12 -4 15 -3 10 5 -4 7 -2 12 3 12 6 0 11
5 11 11 0 5 -6 7 -12 3 -7 -4 0 5 15 20 18 17 27 34 25 48 -2 13 7 32 21 46
15 16 22 31 18 47 -2 14 -1 22 3 20 4 -3 16 5 26 17 19 21 19 21 -3 9 -14 -7
-23 -8 -23 -2 0 5 9 13 20 16 11 4 18 10 15 15 -3 4 2 11 11 14 8 3 13 10 10
15 -4 5 -3 11 1 14 5 2 3 2 -4 1 -7 -2 -15 1 -18 7 -4 5 -1 8 7 7 7 -2 12 3
10 11 -3 12 -1 12 14 0 16 -12 17 -12 11 4 -4 10 -2 17 6 17 8 0 8 3 -2 9 -10
7 -11 13 -2 30 7 11 14 21 17 21 3 0 2 -6 -2 -12 -5 -9 -2 -9 9 1 18 14 23 26
8 16 -5 -3 -12 -1 -16 5 -3 5 1 10 10 10 9 0 13 4 10 10 -3 5 0 10 7 10 9 0 9
3 -2 10 -13 9 -13 10 0 11 8 1 18 1 23 0 4 0 6 5 5 11 -2 7 2 12 9 11 8 -2 10
4 6 14 -5 12 -3 14 7 8 9 -5 11 -4 6 3 -4 7 -2 12 5 12 7 0 10 3 7 6 -4 3 -17
0 -30 -6 l-23 -11 24 19 c16 13 22 25 18 36 -4 10 -1 19 8 22 8 4 12 11 8 17
-4 6 0 8 10 4 11 -4 15 -1 12 14 -2 10 1 19 7 19 6 0 5 7 -3 17 -10 11 -10 14
-1 9 7 -4 12 -1 12 8 0 9 1 19 2 24 2 10 31 31 38 27 3 -2 5 11 4 28 0 18 7
38 19 50 16 16 17 21 6 28 -12 7 -12 10 0 21 10 10 12 10 7 1 -4 -7 -3 -13 3
-13 12 0 24 37 16 50 -4 6 -1 9 7 8 7 -2 12 3 10 10 -1 6 2 12 8 12 5 0 10 4
10 10 0 5 -8 7 -17 4 -13 -4 -14 -3 -5 3 6 5 19 18 28 29 8 10 12 13 8 5 -5
-10 -3 -12 5 -7 9 6 9 11 0 22 -10 12 -8 19 11 37 13 12 18 14 11 5 -8 -10 -9
-18 -3 -18 16 0 22 26 9 40 -9 9 -9 11 -1 7 7 -4 15 0 18 9 4 10 2 13 -7 9 -6
-4 -1 4 13 16 16 14 19 20 8 16 -10 -3 -20 -1 -24 5 -4 7 -3 8 4 4 7 -4 12 -2
12 4 0 7 6 10 14 7 10 -4 13 2 11 23 -2 22 1 27 14 23 13 -5 14 -3 4 8 -7 7
-13 18 -13 23 0 6 5 4 10 -4 8 -13 10 -12 11 5 1 11 1 24 0 28 -1 5 3 6 8 3 5
-4 12 -2 16 4 3 5 2 10 -4 10 -5 0 -3 14 6 30 8 17 18 28 22 26 4 -3 7 7 7 22
-1 16 4 26 11 25 8 -2 10 4 6 14 -5 12 -3 14 7 8 10 -6 12 -4 7 8 -4 12 -1 17
11 17 10 0 13 3 7 8 -6 4 -10 21 -10 37 1 21 6 29 17 27 9 -1 18 7 21 18 4 17
3 19 -9 9 -9 -7 -14 -8 -14 -1 0 6 10 14 21 17 17 6 19 9 8 16 -11 7 -11 9 2
9 9 0 16 7 16 15 0 10 -6 14 -16 10 -13 -5 -14 -4 -3 7 11 11 16 9 29 -7 14
-18 15 -18 9 -1 -5 14 -3 17 10 12 14 -5 15 -4 5 8 -9 11 -8 15 4 20 9 3 14
10 10 16 -3 5 -1 19 6 31 9 17 13 19 20 8 6 -10 8 -8 6 8 0 12 -6 19 -12 17
-5 -3 -2 1 8 9 19 16 24 32 5 21 -7 -4 -8 -3 -4 4 4 7 15 12 24 12 10 0 13 3
7 8 -5 4 -11 13 -13 21 -3 12 0 12 12 2 10 -8 16 -9 21 -1 3 5 2 10 -3 10 -14
0 -2 41 19 64 10 10 16 23 13 27 -2 4 1 11 7 15 8 4 7 9 -2 15 -11 7 -11 9 -1
9 7 0 11 4 7 9 -3 5 0 13 6 17 8 4 9 3 5 -4 -4 -7 -3 -12 3 -12 11 0 26 58 17
67 -3 4 3 12 14 20 11 8 20 19 20 25 0 7 -6 4 -13 -6 -12 -16 -13 -16 -13 3 0
11 3 18 6 17 3 -2 23 18 45 44 22 26 47 52 56 58 14 9 215 18 254 12 6 -1 40
-1 77 0 60 1 67 -1 73 -20 5 -16 10 -19 18 -11 14 14 30 14 21 0 -4 -8 11 -10
50 -7 33 2 56 -1 56 -7 0 -7 3 -7 8 0 10 14 42 15 42 1 0 -6 5 -4 10 4 6 9 10
11 10 3 0 -7 7 -10 15 -7 23 9 105 10 105 1 0 -5 5 -5 11 -1 16 9 122 5 129
-5 7 -11 60 -20 60 -10 0 5 7 6 15 3 8 -4 12 -10 9 -15 -3 -5 0 -9 5 -9 6 0
11 6 11 13 0 9 2 9 8 -1 6 -8 31 -12 73 -11 35 0 66 0 69 -1 20 -7 50 -5 50 4
0 6 6 4 13 -5 10 -13 32 -16 124 -15 78 1 109 -2 102 -10 -6 -7 7 -10 40 -11
26 0 53 -3 59 -7 7 -4 12 -4 12 1 0 8 158 9 166 1 2 -3 24 -2 48 2 34 5 43 4
39 -7 -3 -7 2 -13 11 -13 10 0 13 6 9 17 -4 12 1 9 15 -7 12 -14 21 -20 22
-15 0 6 17 9 40 7 22 -2 38 -7 36 -11 -3 -4 4 -7 14 -7 15 0 17 3 7 16 -9 12
-8 12 8 -1 20 -17 75 -31 75 -20 0 6 68 7 74 0 3 -2 43 -2 91 1 59 3 90 1 96
-7 6 -6 24 -11 42 -11 49 0 59 -1 53 -10 -3 -5 1 -9 8 -9 8 0 12 7 9 16 -3 11
-1 11 7 -2 9 -13 22 -18 49 -16 20 2 42 0 48 -4 6 -4 15 -3 18 3 5 8 11 7 21
-1 8 -6 14 -8 14 -3 0 10 92 10 108 0 6 -3 14 -2 17 4 5 8 11 7 21 -1 10 -8
14 -8 14 0 0 7 8 8 26 1 16 -7 23 -7 19 0 -3 6 -2 10 3 10 15 0 22 42 10 57
-8 10 -14 11 -25 2 -7 -7 -16 -9 -20 -5 -3 3 -1 6 5 6 7 0 12 5 12 11 0 5 -5
7 -10 4 -5 -3 -10 -1 -10 5 0 6 -5 8 -12 4 -7 -4 -8 -3 -4 5 4 6 13 8 19 4 8
-5 8 -2 0 9 -7 8 -10 18 -6 21 6 7 -12 11 -30 8 -4 -1 -3 8 3 19 10 19 4 26
-23 21 -5 -1 -6 3 -2 9 3 6 11 7 17 4 6 -4 6 2 -1 15 -7 11 -14 21 -17 21 -3
0 -3 -4 1 -9 3 -5 0 -13 -7 -17 -7 -4 -10 -4 -6 1 4 4 1 20 -7 36 -12 22 -20
27 -42 24 -16 -2 -22 -2 -15 1 6 3 9 11 6 16 -4 7 -2 8 4 4 7 -4 12 -3 12 2 0
6 -7 12 -15 16 -8 3 -15 13 -15 21 0 10 -5 13 -12 9 -8 -5 -7 0 2 11 13 17 13
18 -1 13 -8 -3 -26 0 -40 8 -13 7 -20 13 -16 14 5 0 17 -5 28 -10 31 -17 21 4
-11 22 -21 12 -30 25 -30 43 0 25 -13 34 -24 16 -4 -5 0 -12 6 -14 9 -4 10 -6
1 -6 -16 -1 -26 16 -13 24 5 3 10 11 10 16 0 6 -5 7 -12 3 -7 -5 -9 -1 -6 13
5 21 -21 53 -43 53 -5 0 -7 5 -4 10 3 6 1 10 -6 10 -9 0 -9 3 0 14 9 11 9 16
0 22 -8 4 -9 3 -5 -4 4 -7 3 -12 -1 -12 -12 0 -33 22 -33 35 0 5 5 3 11 -5 9
-13 10 -13 6 0 -2 8 -11 15 -20 15 -18 0 -24 12 -11 23 4 4 4 1 -1 -7 -5 -9
-4 -12 3 -7 17 10 3 36 -16 28 -15 -5 -15 -4 -3 12 12 15 12 17 0 14 -8 -2
-17 -7 -21 -13 -4 -5 -6 0 -5 12 0 12 5 19 9 17 4 -3 8 0 8 6 0 8 -10 10 -27
6 l-28 -6 25 15 c23 13 23 14 5 16 -11 1 -27 1 -35 0 -11 -1 -11 1 3 9 9 6 17
16 17 23 0 7 -4 6 -10 -3 -7 -12 -11 -8 -16 18 -4 17 -11 32 -16 32 -5 0 -6
-4 -3 -10 4 -6 -1 -7 -11 -3 -11 4 -13 8 -6 11 17 5 15 22 -2 22 -9 0 -12 7
-9 20 3 12 0 20 -6 20 -7 0 -9 -5 -5 -12 9 -14 -26 10 -38 27 -16 22 -7 26 10
4 15 -17 21 -19 27 -9 5 8 4 11 -2 7 -6 -4 -18 4 -27 18 -9 14 -22 25 -29 25
-8 0 -7 -4 3 -11 12 -9 12 -10 -3 -5 -10 3 -22 6 -25 6 -4 0 0 5 8 10 13 8 13
11 1 19 -7 5 -11 14 -7 19 4 6 -3 16 -14 22 -11 6 -17 16 -14 22 5 7 2 8 -5 4
-8 -5 -11 -2 -9 9 2 10 -4 20 -12 22 -13 4 -13 3 0 -7 13 -10 13 -11 0 -7 -8
2 -14 13 -14 25 1 12 -2 20 -5 17 -4 -2 -13 0 -21 6 -13 7 -12 9 3 9 9 0 17 4
17 10 0 5 -6 7 -14 4 -8 -3 -17 0 -22 7 -5 8 -3 10 7 4 12 -8 12 -6 0 8 -11
14 -16 15 -29 5 -13 -11 -14 -11 -8 0 4 7 3 18 -2 25 -5 7 -8 20 -7 30 2 9 0
15 -3 13 -4 -2 -16 0 -27 5 -19 7 -19 8 3 8 12 1 22 5 22 11 0 5 -6 7 -14 4
-8 -3 -16 3 -19 16 -3 12 -10 19 -16 16 -6 -4 -8 3 -5 18 3 19 -2 26 -26 36
-30 12 -44 35 -15 24 8 -4 15 -1 15 5 0 6 -3 10 -7 10 -25 -4 -43 3 -43 17 0
9 -5 12 -12 8 -8 -5 -9 -2 -5 10 5 11 3 15 -5 10 -8 -5 -9 -2 -5 9 4 10 2 17
-4 17 -6 0 -9 7 -5 15 3 8 1 15 -4 15 -6 0 -10 -5 -10 -12 0 -6 -3 -8 -6 -5
-4 4 -1 14 7 24 12 15 12 16 -3 10 -10 -3 -20 -1 -24 5 -4 7 -3 8 4 4 7 -4 12
-2 12 3 0 11 -13 15 -35 12 -5 -1 -2 5 7 12 10 8 15 17 11 20 -3 4 -12 2 -19
-4 -10 -8 -12 -6 -9 9 4 24 -23 51 -48 47 -14 -3 -16 0 -7 10 8 9 8 15 0 20
-6 3 -7 12 -3 18 4 7 -1 5 -12 -3 -17 -14 -17 -13 -10 10 7 22 6 23 -9 11 -9
-8 -19 -11 -23 -7 -3 3 -2 6 4 6 6 0 14 7 17 16 3 8 2 12 -4 9 -12 -8 -33 32
-24 48 4 6 4 9 0 5 -8 -7 -66 47 -66 60 0 4 7 -2 15 -12 8 -11 15 -15 15 -8 0
6 -9 17 -20 25 -11 8 -17 17 -12 22 4 5 2 5 -5 1 -7 -4 -9 -14 -6 -23 4 -11 3
-14 -6 -9 -7 5 -10 14 -7 22 3 7 -1 20 -9 27 -11 11 -11 17 -2 26 9 9 8 11 -6
5 -10 -3 -17 -3 -16 2 5 28 -31 79 -47 66 -4 -4 -2 2 6 12 13 17 13 18 1 11
-11 -6 -13 -4 -8 8 4 10 2 16 -6 14 -7 -1 -12 8 -11 20 0 12 -4 21 -10 20 -6
-1 -10 3 -9 8 1 6 -8 12 -19 12 -12 1 -26 7 -32 13 -8 8 -6 9 9 4 17 -7 18 -6
5 8 -8 9 -19 13 -24 10 -5 -3 -7 4 -4 15 5 21 -21 53 -43 53 -5 0 -7 4 -4 10
3 6 1 10 -6 10 -9 0 -9 3 0 14 9 11 9 16 0 22 -8 4 -9 3 -5 -4 10 -17 -9 -15
-24 3 -7 8 -10 21 -7 29 3 7 -4 24 -16 37 -12 13 -21 27 -20 31 2 5 -2 8 -8 8
-8 0 -8 5 1 15 10 12 10 15 0 15 -9 0 -10 3 -1 13 6 8 8 17 4 20 -3 4 -1 7 5
7 7 0 12 5 12 11 0 5 -5 7 -12 3 -7 -4 -8 -3 -4 4 4 7 13 12 21 12 8 0 18 8
24 18 5 9 13 16 17 14 5 -1 8 9 9 22 0 13 4 28 9 33 5 5 6 3 2 -4 -4 -7 -2
-13 3 -13 6 0 11 5 11 11 0 5 4 8 8 5 5 -3 9 1 9 9 0 8 -4 12 -8 9 -4 -2 -10
0 -13 5 -4 5 5 8 19 7 21 -3 23 -1 14 16 -9 17 -8 18 9 9 18 -9 19 -8 14 11
-4 18 -2 20 14 15 18 -7 18 -6 1 7 -12 9 -14 16 -8 21 6 3 11 3 11 -1 0 -4 9
1 21 12 13 11 19 27 16 40 -3 18 0 21 16 18 11 -2 17 -1 13 3 -3 3 -1 12 5 19
6 8 9 21 5 29 -3 10 -2 13 5 10 5 -4 16 -1 25 5 11 10 12 16 3 27 -9 11 -9 12
3 8 9 -4 18 1 22 11 5 12 2 15 -9 10 -9 -3 -13 -2 -10 4 3 6 13 10 21 10 8 0
25 10 37 22 l22 22 -30 -18 -30 -18 28 28 c24 25 29 27 38 14 9 -13 10 -12 5
2 -3 10 -1 20 5 23 5 4 6 11 3 17 -5 7 -2 9 8 5 12 -4 14 -1 11 13 -3 12 3 22
16 29 12 7 21 19 21 27 0 8 5 12 11 8 7 -4 6 2 -2 17 -12 23 -11 23 7 9 10 -8
16 -11 12 -6 -4 5 0 15 8 24 9 8 13 23 11 33 -3 11 0 16 8 12 8 -2 19 5 25 17
6 11 16 17 22 14 7 -4 8 -3 4 5 -4 6 -11 9 -16 6 -5 -3 -11 -1 -14 4 -4 5 6 8
20 6 19 -2 28 3 31 16 3 11 10 19 15 19 6 0 7 7 4 16 -3 9 -2 12 5 9 6 -4 9 1
7 11 -2 11 2 18 10 17 6 -2 12 3 12 11 0 7 13 23 29 35 17 13 27 29 24 37 -3
8 -10 11 -16 7 -6 -3 -7 -1 -3 6 4 6 12 9 17 6 8 -6 13 9 10 29 -1 5 6 6 15 2
14 -5 15 -4 4 9 -10 12 -10 15 4 15 9 0 27 9 39 21 17 15 18 19 5 14 -11 -4
-18 -2 -18 4 0 6 7 11 15 11 10 0 12 6 8 18 -6 14 -4 15 9 4 13 -10 15 -9 11
12 -3 13 1 27 7 31 9 5 10 1 6 -16 -7 -22 -6 -23 5 -4 6 11 21 31 33 44 11 13
15 21 9 17 -7 -4 -13 -3 -13 2 0 6 7 12 15 16 8 3 15 12 15 21 0 8 5 15 10 15
6 0 10 5 10 11 0 5 -5 7 -12 3 -7 -4 -8 -3 -4 4 4 7 17 12 28 12 21 0 21 0 2
21 -14 15 -15 20 -4 17 8 -2 14 3 12 10 -1 8 2 11 8 7 8 -5 7 -12 -2 -23 -12
-15 -11 -15 4 -4 9 7 15 22 13 32 -2 11 1 22 6 25 5 4 7 11 3 16 -3 5 0 8 7 7
7 -2 18 8 26 22 7 14 13 20 13 14 0 -7 7 -14 15 -18 13 -5 14 -2 4 17 -11 20
-11 21 6 7 17 -14 17 -13 10 9 -5 15 -4 21 3 17 13 -8 21 5 24 38 1 14 6 26
11 26 5 0 6 -10 3 -22 l-6 -23 11 23 c7 12 16 22 21 22 5 0 6 5 3 10 -4 6 -12
7 -18 3 -7 -4 -6 1 2 11 8 9 20 15 27 12 9 -3 11 0 7 11 -5 12 -3 14 8 8 12
-7 12 -6 1 7 -9 11 -10 18 -2 23 6 3 7 11 4 17 -4 6 3 5 16 -2 12 -7 20 -8 16
-2 -3 5 1 15 10 23 17 14 41 54 27 46 -5 -4 -10 0 -10 8 0 8 4 12 9 9 13 -8
38 16 38 36 0 9 10 22 23 29 12 6 14 9 4 6 -10 -3 -15 -1 -12 5 3 6 1 10 -5
10 -6 0 -8 5 -4 11 4 8 9 7 15 -2 7 -12 10 -12 21 0 7 8 8 11 2 8 -6 -3 -11 0
-11 8 0 10 5 11 18 5 14 -8 16 -6 11 12 -4 18 -2 20 14 15 18 -7 18 -6 1 7
-12 9 -14 16 -8 21 6 3 11 3 11 -1 0 -4 9 1 21 12 13 11 19 27 16 40 -3 18 0
21 15 19 16 -4 18 -2 8 10 -10 12 -10 18 0 30 7 8 16 12 21 9 5 -3 9 0 9 6 0
6 4 9 8 6 5 -3 9 1 9 9 0 8 -4 12 -8 9 -4 -2 -10 0 -13 5 -4 5 5 8 18 7 19 -3
24 1 21 16 -3 15 -1 17 9 9 10 -9 12 -6 9 12 -3 15 3 29 19 42 l23 20 -18 -22
c-14 -16 -15 -23 -6 -29 7 -4 10 -3 5 4 -3 5 6 20 21 32 16 12 23 19 18 16 -6
-2 -17 0 -25 6 -12 8 -12 9 2 5 23 -8 73 32 59 46 -6 6 -11 16 -11 21 0 6 4 5
9 -2 6 -10 10 -10 20 2 18 22 22 68 5 62 -7 -3 -16 0 -20 6 -4 6 -3 8 4 4 6
-3 13 -2 16 3 3 5 -5 11 -19 13 -14 3 -25 2 -25 -1 0 -8 -64 -6 -78 3 -7 4
-12 4 -12 -1 0 -10 -93 -8 -109 1 -6 4 -11 4 -11 -1 0 -9 -113 -8 -129 1 -6 4
-11 3 -11 -2 0 -6 -9 -8 -20 -5 -12 3 -29 -2 -39 -11 -13 -12 -21 -14 -26 -6
-3 5 -11 7 -17 4 -6 -4 -47 -6 -91 -5 -73 2 -79 1 -67 -14 11 -13 10 -15 -4
-9 -9 3 -16 11 -16 18 0 8 -2 8 -8 -1 -9 -14 -162 -22 -162 -8 0 6 -5 3 -10
-5 -5 -8 -10 -10 -10 -5 0 6 -4 3 -9 -4 -7 -11 -25 -14 -62 -12 -44 2 -51 0
-41 -11 8 -11 7 -14 -7 -14 -13 0 -17 5 -13 16 5 12 3 13 -9 3 -13 -10 -160
-20 -194 -13 -5 1 -13 2 -17 1 -4 0 -29 -1 -57 -2 -36 -2 -51 -7 -54 -18 -4
-13 -5 -12 -6 2 0 10 -6 15 -11 12 -6 -4 -8 -10 -5 -14 2 -5 -13 -5 -35 -1
-22 4 -40 5 -40 1 0 -3 -15 -7 -32 -7 -33 -2 -93 -12 -115 -19 -6 -2 -14 1
-17 8 -2 7 -5 7 -5 1 -1 -6 -21 -8 -56 -4 -30 3 -55 3 -55 0 0 -8 -43 -5 -57
3 -7 4 -15 1 -20 -7 -6 -10 -30 -16 -79 -18 -44 -1 -70 -6 -68 -13 5 -11 -97
-12 -115 -1 -6 4 -11 4 -11 -1 0 -10 -93 -8 -109 1 -6 4 -11 4 -11 -1 0 -10
-93 -8 -109 1 -6 4 -11 2 -11 -4 0 -6 -5 -8 -11 -4 -6 3 -15 0 -20 -7 -8 -12
-11 -12 -19 1 -8 13 -10 12 -11 -5 -1 -11 -1 -23 0 -27 0 -3 -12 -3 -27 1 -15
5 -37 4 -50 0 -15 -6 -22 -5 -22 4 0 7 -3 8 -8 2 -10 -14 -42 -15 -42 -1 0 6
-5 4 -10 -4 -6 -10 -10 -11 -10 -3 0 9 -7 10 -25 3 -18 -7 -25 -6 -25 3 0 7
-3 8 -8 2 -10 -14 -42 -15 -42 -1 0 6 -5 4 -10 -4 -6 -10 -10 -11 -10 -3 0 9
-7 10 -24 3 -15 -5 -27 -5 -35 3 -6 6 -11 7 -11 1 0 -6 -11 -10 -24 -10 -14 0
-24 3 -23 6 1 3 -9 17 -22 30 l-25 25 17 -27 c14 -23 15 -26 2 -22 -8 4 -15
12 -15 19 0 8 -7 21 -16 30 -9 9 -16 27 -16 41 0 13 -5 24 -10 24 -5 0 -6 5
-3 10 3 6 -1 10 -10 10 -9 0 -13 5 -10 10 3 6 1 10 -6 10 -9 0 -9 3 0 14 10
12 7 17 -15 29 -22 12 -24 15 -10 20 11 5 15 3 10 -5 -4 -7 -3 -8 5 -4 18 11
1 28 -22 22 -14 -3 -17 -2 -9 6 8 8 7 19 -3 38 -8 15 -13 29 -12 31 1 2 -3 -2
-9 -9 -9 -10 -13 -10 -18 3 -3 9 -2 13 4 10 6 -4 8 3 6 17 -3 13 -5 29 -5 36
-1 7 -5 11 -10 7 -5 -3 -13 0 -17 6 -4 7 -3 10 2 7 5 -3 15 1 22 8 11 13 10
14 -12 10 -28 -5 -44 8 -25 20 8 5 9 3 4 -6 -5 -9 -4 -11 3 -6 17 10 15 14
-15 43 -16 15 -22 23 -15 19 6 -4 12 -3 12 2 0 6 -7 13 -16 16 -9 3 -14 12
-11 20 3 7 0 19 -6 25 -13 13 -19 43 -6 36 5 -4 6 1 3 9 -3 9 -10 16 -16 16
-5 0 -6 5 -2 12 4 6 3 8 -4 5 -5 -4 -9 -15 -8 -25 2 -9 -2 -2 -7 16 -6 17 -17
32 -25 32 -11 0 -12 3 -3 14 10 12 8 17 -7 25 -11 6 -23 7 -28 3 -5 -4 -2 1 5
11 10 13 11 17 1 17 -10 0 -10 3 -1 14 10 12 8 17 -9 26 -11 6 -26 8 -32 4 -7
-4 -8 -3 -4 5 4 7 17 9 29 6 19 -5 19 -4 -3 9 -14 9 -19 15 -11 16 8 0 3 9
-13 21 -22 17 -24 24 -15 42 9 18 9 20 -2 10 -7 -7 -18 -13 -24 -13 -5 0 -3 5
5 11 12 8 12 12 2 16 -9 3 -10 9 -2 18 8 9 6 14 -5 19 -11 4 -14 12 -10 27 5
16 4 19 -6 14 -9 -6 -11 -3 -6 8 3 9 3 16 -1 16 -19 -3 -25 2 -12 11 11 7 11
10 2 10 -7 0 -10 5 -6 12 5 7 3 8 -6 3 -10 -6 -12 -4 -7 9 4 10 3 15 -3 11 -9
-6 -11 2 -15 46 0 9 -7 24 -14 32 -7 9 -9 22 -5 28 4 7 3 10 -2 7 -5 -2 -20 7
-33 20 -13 14 -17 22 -8 19 11 -4 13 0 10 14 -3 10 -10 19 -15 19 -5 0 -6 -4
-3 -10 3 -6 -1 -7 -10 -3 -14 5 -14 8 -3 15 11 8 11 10 -1 15 -9 4 -10 8 -2
12 7 5 5 14 -9 28 -11 12 -21 36 -22 52 -2 26 -6 30 -23 25 -20 -6 -20 -6 0
10 19 15 19 15 1 16 -13 0 -17 5 -13 20 3 10 2 19 -2 18 -18 -2 -22 4 -11 17
11 13 10 14 -3 9 -12 -4 -15 -1 -12 15 4 19 -6 26 -29 22 -5 -1 -4 5 4 13 9
12 9 16 1 16 -7 0 -10 4 -7 9 3 5 -1 14 -9 21 -8 7 -15 17 -15 23 0 6 6 3 13
-8 11 -14 16 -15 22 -5 5 9 4 11 -3 6 -7 -4 -12 -1 -12 8 0 10 -9 16 -22 16
-13 0 -18 4 -13 8 10 6 11 20 5 40 -1 4 -2 10 -1 14 0 4 -8 12 -19 18 -11 6
-17 16 -14 22 4 7 2 8 -5 4 -9 -6 -9 -11 1 -23 12 -15 11 -15 -9 -2 -14 9 -18
16 -11 20 8 5 3 18 -15 38 -14 18 -24 38 -21 46 4 8 2 15 -3 15 -6 0 -9 14 -8
30 1 17 0 28 -3 25 -10 -9 -31 16 -25 31 3 8 1 14 -5 14 -5 0 -9 8 -9 18 0 33
-3 42 -14 42 -8 0 -7 -6 2 -17 13 -15 12 -15 -10 -4 -16 9 -20 16 -12 20 7 5
9 16 5 27 -8 21 -40 55 -46 49 -7 -7 -2 41 6 53 4 7 2 12 -4 12 -6 0 -10 8 -8
18 2 13 -3 16 -22 14 -14 -1 -20 1 -14 5 12 9 15 43 4 43 -4 0 -6 10 -5 23 3
31 -4 40 -21 26 -12 -10 -13 -9 -8 6 5 13 4 16 -5 10 -10 -6 -11 -3 -1 15 10
19 10 22 -2 17 -11 -4 -14 1 -10 19 2 14 0 24 -7 24 -6 0 -11 7 -11 15 0 8 -5
15 -11 15 -6 0 -8 7 -5 16 3 8 2 12 -4 9 -6 -3 -10 -2 -10 4 0 5 6 12 13 15 6
4 2 4 -10 2 -25 -4 -40 9 -23 19 8 5 5 14 -7 28 -17 19 -17 20 -1 14 15 -5 16
-4 6 13 -7 10 -15 17 -18 15 -3 -2 -11 5 -18 16 -10 15 -10 19 0 19 19 1 -23
30 -43 30 -9 0 -22 -6 -28 -14z m164 -226 c3 -5 2 -10 -4 -10 -5 0 -13 5 -16
10 -3 6 -2 10 4 10 5 0 13 -4 16 -10z m90 -190 c-3 -5 -12 -10 -18 -10 -7 0
-6 4 3 10 19 12 23 12 15 0z m222 -457 c-4 -3 -1 -13 6 -22 11 -14 10 -14 -5
-2 -16 12 -16 31 -1 31 4 0 3 -3 0 -7z m-1037 -373 c0 -5 -5 -10 -11 -10 -5 0
-7 5 -4 10 3 6 8 10 11 10 2 0 4 -4 4 -10z m-20 -34 c0 -3 -4 -8 -10 -11 -5
-3 -10 -1 -10 4 0 6 5 11 10 11 6 0 10 -2 10 -4z m-284 -638 c4 -7 3 -8 -4 -4
-7 4 -12 2 -12 -3 0 -6 -5 -11 -11 -11 -8 0 -8 5 1 15 15 18 17 18 26 3z m-81
-168 c3 -5 -1 -10 -10 -10 -9 0 -13 5 -10 10 3 6 8 10 10 10 2 0 7 -4 10 -10z
m2109 -316 c3 -8 2 -12 -4 -9 -6 3 -10 10 -10 16 0 14 7 11 14 -7z m-5074 -8
c0 -2 -7 -7 -16 -10 -8 -3 -12 -2 -9 4 6 10 25 14 25 6z m7902 -28 c-14 -14
-44 -20 -36 -7 3 5 10 7 15 4 5 -4 9 -1 9 4 0 6 5 11 12 11 9 0 9 -3 0 -12z
m-6132 -20 c0 -4 -4 -8 -9 -8 -6 0 -12 4 -15 8 -3 5 1 9 9 9 8 0 15 -4 15 -9z
m-1700 -68 c0 -5 7 -7 15 -4 8 4 15 4 15 1 0 -13 -30 -14 -40 -1 -9 10 -9 14
-1 14 6 0 11 -4 11 -10z m7630 -179 c0 -6 -5 -13 -12 -17 -6 -4 -8 -3 -4 4 3
5 0 13 -6 15 -8 3 -6 6 5 6 9 1 17 -3 17 -8z m-7425 -101 c3 -5 1 -10 -4 -10
-6 0 -11 5 -11 10 0 6 2 10 4 10 3 0 8 -4 11 -10z m7296 -93 c-10 -9 -11 -8
-5 6 3 10 9 15 12 12 3 -3 0 -11 -7 -18z m-38 -42 c4 -8 1 -17 -5 -21 -7 -4
-8 -3 -4 4 4 7 2 12 -4 12 -6 0 -8 5 -5 10 8 14 12 13 18 -5z m-6818 -493 c-3
-3 -11 0 -18 7 -9 10 -8 11 6 5 10 -3 15 -9 12 -12z m6480 -2 c-3 -5 -12 -10
-18 -10 -7 0 -6 4 3 10 19 12 23 12 15 0z m-168 -241 c-14 -10 -29 -19 -34
-19 -4 0 0 5 10 11 9 6 15 14 13 18 -3 4 4 8 15 8 18 2 18 0 -4 -18z m-6102
-69 c-3 -5 -1 -10 4 -10 6 0 11 -5 11 -11 0 -8 -5 -8 -15 1 -13 11 -12 30 1
30 3 0 2 -4 -1 -10z m5975 -94 c0 -3 -4 -8 -10 -11 -5 -3 -10 -1 -10 4 0 6 5
11 10 11 6 0 10 -2 10 -4z m-46 -61 c-4 -8 -11 -12 -16 -9 -6 4 -5 10 3 15 19
12 19 11 13 -6z m-5641 -239 c4 -10 1 -13 -8 -9 -8 3 -12 9 -9 14 7 12 11 11
17 -5z m5447 -52 c0 -8 -19 -13 -24 -6 -3 5 1 9 9 9 8 0 15 -2 15 -3z m-40
-50 c0 -8 -19 -13 -24 -6 -3 5 1 9 9 9 8 0 15 -2 15 -3z m-40 -63 c0 -6 -5
-13 -12 -17 -6 -4 -8 -3 -4 4 3 5 0 13 -6 15 -8 3 -6 6 5 6 9 1 17 -3 17 -8z
m-5206 -77 c5 -14 4 -15 -9 -4 -17 14 -19 20 -6 20 5 0 12 -7 15 -16z m5041
-134 c3 -6 -1 -7 -9 -4 -18 7 -21 14 -7 14 6 0 13 -4 16 -10z m-4915 -32 c0
-5 -9 -4 -20 2 -11 6 -20 12 -20 14 0 2 9 2 20 -1 11 -3 20 -9 20 -15z m4916
-155 c-10 -11 -19 -7 -22 10 -2 15 0 16 12 6 8 -6 12 -14 10 -16z m84 -123 c8
-5 11 -10 5 -10 -5 0 -17 5 -25 10 -8 5 -10 10 -5 10 6 0 17 -5 25 -10z m70
-95 c11 -13 10 -14 -4 -9 -9 3 -16 10 -16 15 0 13 6 11 20 -6z m78 -140 c-3
-3 -9 2 -12 12 -6 14 -5 15 5 6 7 -7 10 -15 7 -18z m126 -181 c3 -8 2 -12 -4
-9 -6 3 -10 10 -10 16 0 14 7 11 14 -7z m115 -127 c8 -10 7 -14 -2 -14 -8 0
-14 6 -14 14 0 7 1 13 2 13 2 0 8 -6 14 -13z m-5899 -37 c0 -5 -4 -10 -10 -10
-5 0 -10 5 -10 10 0 6 5 10 10 10 6 0 10 -4 10 -10z m6084 -228 c2 -4 0 -14
-6 -22 -8 -12 -9 -12 -5 2 3 9 1 19 -6 22 -9 3 -9 5 0 5 6 1 14 -3 17 -7z
m206 -312 c13 -8 13 -10 -2 -10 -9 0 -20 5 -23 10 -8 13 5 13 25 0z m-6723
-85 c0 -8 -4 -12 -9 -9 -5 3 -6 10 -3 15 9 13 12 11 12 -6z m-51 -67 c4 -7 4
-10 -1 -6 -4 4 -15 2 -24 -5 -14 -11 -14 -10 -2 6 16 20 18 21 27 5z m7114
-328 c8 -5 11 -10 5 -10 -5 0 -17 5 -25 10 -8 5 -10 10 -5 10 6 0 17 -5 25
-10z m-7469 -183 c-6 -8 -7 -18 -3 -22 4 -5 1 -5 -5 -1 -9 5 -13 1 -13 -11 0
-14 -2 -15 -9 -4 -6 10 -3 20 12 32 26 22 34 24 18 6z m7653 -83 c3 -8 2 -12
-4 -9 -6 3 -10 10 -10 16 0 14 7 11 14 -7z m-7698 -16 c4 -7 3 -10 -1 -5 -5 4
-22 -5 -39 -20 -18 -17 -25 -20 -16 -8 13 18 40 45 46 45 2 0 6 -6 10 -12z
m5031 -64 c-17 -19 -34 -34 -38 -34 -5 0 3 12 16 26 14 15 23 30 21 33 -3 4 3
7 13 8 14 1 12 -5 -12 -33z m2795 -129 c-6 -12 -11 -14 -16 -6 -4 6 -2 11 4
11 7 0 9 7 5 18 -5 13 -3 14 5 5 8 -7 9 -17 2 -28z m-2942 -145 c0 -5 -5 -10
-11 -10 -5 0 -7 5 -4 10 3 6 8 10 11 10 2 0 4 -4 4 -10z m-620 -1344 c0 -2 -6
-9 -14 -15 -11 -9 -16 -9 -22 0 -4 7 -3 9 4 5 6 -3 13 -2 17 4 6 10 15 14 15
6z m-177 -351 c4 -8 3 -16 -1 -19 -4 -3 -9 4 -9 15 -2 23 3 25 10 4z m-28 -85
c-3 -5 -12 -10 -18 -10 -7 0 -6 4 3 10 19 12 23 12 15 0z"/>
<path d="M4610 9270 c-9 -6 -10 -10 -3 -10 6 0 15 5 18 10 8 12 4 12 -15 0z"/>
<path d="M4494 9032 c3 -5 0 -13 -6 -15 -9 -4 -10 -6 -1 -6 17 -1 25 16 12 25
-7 4 -9 3 -5 -4z"/>
<path d="M4910 8821 c0 -6 4 -13 10 -16 6 -3 7 1 4 9 -7 18 -14 21 -14 7z"/>
<path d="M4315 8650 c3 -5 8 -10 11 -10 2 0 4 5 4 10 0 6 -5 10 -11 10 -5 0
-7 -4 -4 -10z"/>
<path d="M4998 8643 c7 -3 16 -2 19 1 4 3 -2 6 -13 5 -11 0 -14 -3 -6 -6z"/>
<path d="M5040 8530 c9 -17 30 -20 30 -4 0 3 -4 2 -10 -1 -5 -3 -10 1 -10 9 0
9 -5 16 -10 16 -7 0 -7 -7 0 -20z"/>
<path d="M4110 8185 c0 -8 2 -15 4 -15 2 0 6 7 10 15 3 8 1 15 -4 15 -6 0 -10
-7 -10 -15z"/>
<path d="M5260 8100 c0 -5 5 -10 11 -10 5 0 7 5 4 10 -3 6 -8 10 -11 10 -2 0
-4 -4 -4 -10z"/>
<path d="M3907 7759 c7 -7 15 -10 18 -7 3 3 -2 9 -12 12 -14 6 -15 5 -6 -5z"/>
<path d="M3860 7649 c0 -5 5 -7 10 -4 6 3 10 8 10 11 0 2 -4 4 -10 4 -5 0 -10
-5 -10 -11z"/>
<path d="M5465 7620 c3 -5 8 -10 11 -10 2 0 4 5 4 10 0 6 -5 10 -11 10 -5 0
-7 -4 -4 -10z"/>
<path d="M3698 7323 c7 -3 16 -2 19 1 4 3 -2 6 -13 5 -11 0 -14 -3 -6 -6z"/>
<path d="M3607 7126 c-11 -8 -14 -17 -8 -20 5 -4 15 3 21 14 13 23 11 24 -13
6z"/>
<path d="M3570 7039 c0 -5 5 -7 10 -4 6 3 10 8 10 11 0 2 -4 4 -10 4 -5 0 -10
-5 -10 -11z"/>
<path d="M3523 6935 c0 -8 4 -12 9 -9 4 3 8 9 8 15 0 5 -4 9 -8 9 -5 0 -9 -7
-9 -15z"/>
<path d="M2013 6907 c0 -8 6 -14 14 -14 9 0 10 4 2 14 -6 7 -12 13 -14 13 -1
0 -2 -6 -2 -13z"/>
<path d="M2580 6851 c0 -6 4 -13 10 -16 6 -3 7 1 4 9 -7 18 -14 21 -14 7z"/>
<path d="M8450 6660 c0 -5 7 -7 15 -4 8 4 15 8 15 10 0 2 -7 4 -15 4 -8 0 -15
-4 -15 -10z"/>
<path d="M907 6584 c3 -7 9 -14 14 -14 14 0 10 17 -5 23 -10 4 -13 1 -9 -9z"/>
<path d="M8205 6290 c-3 -5 -1 -10 4 -10 6 0 11 5 11 10 0 6 -2 10 -4 10 -3 0
-8 -4 -11 -10z"/>
<path d="M8036 6061 c-13 -14 -14 -21 -5 -27 7 -4 10 -3 5 4 -3 6 2 15 11 21
10 5 15 12 12 15 -3 4 -14 -2 -23 -13z"/>
<path d="M1522 5706 c7 -8 15 -12 17 -11 5 6 -10 25 -20 25 -5 0 -4 -6 3 -14z"/>
<path d="M2020 4979 c0 -5 5 -7 10 -4 6 3 10 8 10 11 0 2 -4 4 -10 4 -5 0 -10
-5 -10 -11z"/>
<path d="M7186 4818 c3 -5 10 -6 15 -3 13 9 11 12 -6 12 -8 0 -12 -4 -9 -9z"/>
<path d="M1990 4319 c0 -5 5 -7 10 -4 6 3 10 8 10 11 0 2 -4 4 -10 4 -5 0 -10
-5 -10 -11z"/>
<path d="M1570 3765 c0 -5 5 -17 10 -25 5 -8 10 -10 10 -5 0 6 -5 17 -10 25
-5 8 -10 11 -10 5z"/>
<path d="M7875 3540 c3 -5 8 -10 11 -10 2 0 4 5 4 10 0 6 -5 10 -11 10 -5 0
-7 -4 -4 -10z"/>
<path d="M1335 3380 c4 -6 11 -8 16 -5 14 9 11 15 -7 15 -8 0 -12 -5 -9 -10z"/>
<path d="M1307 3343 c-4 -3 -7 -11 -7 -17 0 -6 5 -5 12 2 6 6 9 14 7 17 -3 3
-9 2 -12 -2z"/>
<path d="M8400 2791 c0 -6 4 -13 10 -16 6 -3 7 1 4 9 -7 18 -14 21 -14 7z"/>
<path d="M8150 2400 c0 -5 5 -10 11 -10 5 0 7 5 4 10 -3 6 -8 10 -11 10 -2 0
-4 -4 -4 -10z"/>
<path d="M3570 2320 c0 -5 5 -10 11 -10 5 0 7 5 4 10 -3 6 -8 10 -11 10 -2 0
-4 -4 -4 -10z"/>
<path d="M3776 1882 c-3 -5 1 -9 9 -9 8 0 12 4 9 9 -3 4 -7 8 -9 8 -2 0 -6 -4
-9 -8z"/>
<path d="M4026 1338 c3 -5 10 -6 15 -3 13 9 11 12 -6 12 -8 0 -12 -4 -9 -9z"/>
<path d="M5227 1195 c-4 -8 -3 -16 1 -19 4 -3 9 4 9 15 2 23 -3 25 -10 4z"/>
<path d="M5186 1115 c-9 -26 -7 -32 5 -12 6 10 9 21 6 23 -2 3 -7 -2 -11 -11z"/>
<path d="M4535 260 c3 -5 8 -10 11 -10 2 0 4 5 4 10 0 6 -5 10 -11 10 -5 0 -7
-4 -4 -10z"/>
<path d="M4745 180 c-3 -6 1 -7 9 -4 18 7 21 14 7 14 -6 0 -13 -4 -16 -10z"/>
</g>
</svg>
